<svg xmlns="http://www.w3.org/2000/svg" version="1.1"
     width="2000" height="338" viewBox="0 0 2000 338">
    <g transform="matrix(1,0,0,1,-1.2121212121212466,-0.1988966406576651)">
        <svg viewBox="0 0 396 67" data-background-color="#ffffff" preserveAspectRatio="xMidYMid meet" height="338"
             width="2000" xmlns="http://www.w3.org/2000/svg">
            <g id="tight-bounds" transform="matrix(1,0,0,1,0.2400000000000091,0.03942625717178316)">
                <svg viewBox="0 0 395.52 66.92114748565643" height="66.92114748565643" width="395.52">
                    <g>
                        <svg viewBox="0 0 395.52 66.92114748565643" height="66.92114748565643" width="395.52">
                            <g>
                                <svg viewBox="0 0 395.52 66.92114748565643" height="66.92114748565643" width="395.52">
                                    <g id="textblocktransform">
                                        <svg viewBox="0 0 395.52 66.92114748565643" height="66.92114748565643"
                                             width="395.52" id="textblock">
                                            <g>
                                                <svg viewBox="0 0 395.52 66.92114748565643" height="66.92114748565643"
                                                     width="395.52">
                                                    <g transform="matrix(1,0,0,1,0,0)">
                                                        <svg width="395.52" viewBox="1.12 -36.23 217 36.72"
                                                             height="66.92114748565643" data-palette-color="#8b5cf6">
                                                            <path d="M29.39-30.59L17.58-30.59 17.58 0 12.94 0 12.94-30.59 1.12-30.59 1.12-34.4 29.39-34.4 29.39-30.59ZM32.03-36.23L36.42-36.23 36.42-32.03 32.03-32.03 32.03-36.23ZM32.03-26.42L36.42-26.42 36.42 0 32.03 0 32.03-26.42ZM47.63-15.31L47.63-15.31 47.63 0 43.26 0 43.26-20.78Q43.26-23.1 43.22-24.5 43.18-25.9 43.11-26.42L43.11-26.42 47.26-26.42Q47.31-25.88 47.36-25.1 47.41-24.32 47.43-23.47 47.46-22.63 47.46-21.9L47.46-21.9 47.53-21.9Q48.95-24.71 50.78-25.81 52.61-26.9 55.24-26.9L55.24-26.9Q58.25-26.9 59.99-25.71 61.74-24.51 62.42-21.9L62.42-21.9 62.5-21.9Q63.86-24.56 65.8-25.73 67.74-26.9 70.5-26.9L70.5-26.9Q74.51-26.9 76.33-24.73 78.14-22.56 78.14-17.6L78.14-17.6 78.14 0 73.8 0 73.8-16.75Q73.8-20.58 72.75-22.05 71.7-23.51 68.96-23.51L68.96-23.51Q66.08-23.51 64.48-21.37 62.89-19.24 62.89-15.31L62.89-15.31 62.89 0 58.54 0 58.54-16.75Q58.54-20.58 57.49-22.05 56.44-23.51 53.71-23.51L53.71-23.51Q50.9-23.51 49.26-21.36 47.63-19.21 47.63-15.31ZM89.27-15.31L89.27-15.31 89.27 0 84.9 0 84.9-20.78Q84.9-23.1 84.87-24.5 84.83-25.9 84.76-26.42L84.76-26.42 88.91-26.42Q88.96-25.88 89.01-25.1 89.06-24.32 89.08-23.47 89.1-22.63 89.1-21.9L89.1-21.9 89.18-21.9Q90.59-24.71 92.42-25.81 94.26-26.9 96.89-26.9L96.89-26.9Q99.89-26.9 101.64-25.71 103.39-24.51 104.07-21.9L104.07-21.9 104.14-21.9Q105.51-24.56 107.45-25.73 109.39-26.9 112.15-26.9L112.15-26.9Q116.15-26.9 117.97-24.73 119.79-22.56 119.79-17.6L119.79-17.6 119.79 0 115.45 0 115.45-16.75Q115.45-20.58 114.4-22.05 113.35-23.51 110.61-23.51L110.61-23.51Q107.73-23.51 106.13-21.37 104.53-19.24 104.53-15.31L104.53-15.31 104.53 0 100.19 0 100.19-16.75Q100.19-20.58 99.14-22.05 98.09-23.51 95.35-23.51L95.35-23.51Q92.55-23.51 90.91-21.36 89.27-19.21 89.27-15.31ZM148.67-12.28L129.82-12.28Q129.82-7.74 131.7-5.27 133.58-2.81 137.2-2.81L137.2-2.81Q140.05-2.81 141.77-3.96 143.5-5.1 144.11-6.86L144.11-6.86 147.96-5.76Q145.6 0.49 137.2 0.49L137.2 0.49Q131.34 0.49 128.27-3 125.21-6.49 125.21-13.38L125.21-13.38Q125.21-19.92 128.27-23.41 131.34-26.9 137.03-26.9L137.03-26.9Q142.86-26.9 145.77-23.39 148.67-19.87 148.67-12.87L148.67-12.87 148.67-12.28ZM129.87-15.65L144.13-15.65Q143.76-19.82 142.01-21.74 140.25-23.66 136.95-23.66L136.95-23.66Q133.75-23.66 131.89-21.52 130.02-19.38 129.87-15.65L129.87-15.65ZM158.75-13.77L158.75-13.77 158.75 0 154.36 0 154.36-20.26Q154.36-21.66 154.32-23.19 154.28-24.73 154.21-26.42L154.21-26.42 158.36-26.42Q158.41-25.29 158.45-24.39 158.48-23.49 158.51-22.81 158.53-22.14 158.54-21.69 158.56-21.24 158.56-21.02L158.56-21.02 158.65-21.02Q159.39-23.41 160.27-24.73L160.27-24.73Q161.12-25.95 162.22-26.43 163.32-26.9 164.93-26.9L164.93-26.9Q165.83-26.9 166.71-26.66L166.71-26.66 166.71-22.63Q165.88-22.88 164.37-22.88L164.37-22.88Q161.63-22.88 160.19-20.52 158.75-18.16 158.75-13.77ZM181.04 0.49L181.04 0.49Q175.5 0.49 172.58-3.02 169.66-6.52 169.66-13.23L169.66-13.23Q169.66-19.9 172.59-23.4 175.52-26.9 180.99-26.9L180.99-26.9Q185.04-26.9 187.72-24.8 190.39-22.71 191.07-19.02L191.07-19.02 186.56-18.68Q186.22-20.87 184.82-22.17 183.43-23.46 180.87-23.46L180.87-23.46Q177.38-23.46 175.82-21.14 174.25-18.82 174.25-13.33L174.25-13.33Q174.25-8.06 175.91-5.52 177.57-2.98 180.92-2.98L180.92-2.98Q183.26-2.98 184.84-4.25 186.41-5.52 186.78-8.15L186.78-8.15 191.22-7.86Q190.88-5.32 189.52-3.44 188.17-1.56 186.01-0.54 183.85 0.49 181.04 0.49ZM218.12-12.28L199.27-12.28Q199.27-7.74 201.15-5.27 203.03-2.81 206.65-2.81L206.65-2.81Q209.5-2.81 211.23-3.96 212.95-5.1 213.56-6.86L213.56-6.86 217.41-5.76Q215.05 0.49 206.65 0.49L206.65 0.49Q200.79 0.49 197.72-3 194.66-6.49 194.66-13.38L194.66-13.38Q194.66-19.92 197.72-23.41 200.79-26.9 206.48-26.9L206.48-26.9Q212.31-26.9 215.22-23.39 218.12-19.87 218.12-12.87L218.12-12.87 218.12-12.28ZM199.32-15.65L213.58-15.65Q213.21-19.82 211.46-21.74 209.7-23.66 206.4-23.66L206.4-23.66Q203.21-23.66 201.34-21.52 199.47-19.38 199.32-15.65L199.32-15.65Z"
                                                                  opacity="1" transform="matrix(1,0,0,1,0,0)"
                                                                  fill="#8b5cf6" class="wordmark-text-0"
                                                                  data-fill-palette-color="primary" id="text-0"></path>
                                                        </svg>
                                                    </g>
                                                </svg>
                                            </g>
                                        </svg>
                                    </g>
                                </svg>
                            </g>
                            <g></g>
                        </svg>
                    </g>
                    <defs></defs>
                </svg>
                <rect width="395.52" height="66.92114748565643" fill="none" stroke="none" visibility="hidden"></rect>
            </g>
        </svg>
    </g>
</svg>